HIERARCHY
ROOT ui
{
	 OFFSET 0 0 0
	 CHANNELS 3 XPosition YPosition Z Position
	 EndSite
	 {
	 OFFSET 0 -1 0
	 }
}
ROOT li
{
	 OFFSET 0 0 0
	 CHANNELS 3 XPosition YPosition Z Position
	 EndSite
	 {
	 OFFSET 0 -1 0
	 }
}
ROOT ul
{
	 OFFSET 0 0 0
	 CHANNELS 3 XPosition YPosition Z Position
	 EndSite
	 {
	 OFFSET 0 -1 0
	 }
}
ROOT ll
{
	 OFFSET 0 0 0
	 CHANNELS 3 XPosition YPosition Z Position
	 EndSite
	 {
	 OFFSET 0 -1 0
	 }
}
ROOT tt
{
	 OFFSET 0 0 0
	 CHANNELS 3 XPosition YPosition Z Position
	 EndSite
	 {
	 OFFSET 0 -1 0
	 }
}
ROOT tb
{
	 OFFSET 0 0 0
	 CHANNELS 3 XPosition YPosition Z Position
	 EndSite
	 {
	 OFFSET 0 -1 0
	 }
}
ROOT td
{
	 OFFSET 0 0 0
	 CHANNELS 3 XPosition YPosition Z Position
	 EndSite
	 {
	 OFFSET 0 -1 0
	 }
}
ROOT v
{
	 OFFSET 0 0 0
	 CHANNELS 3 XPosition YPosition Z Position
	 EndSite
	 {
	 OFFSET 0 -1 0
	 }
}
ROOT bn
{
	 OFFSET 0 0 0
	 CHANNELS 3 XPosition YPosition Z Position
	 EndSite
	 {
	 OFFSET 0 -1 0
	 }
}
MOTION
Frames: 27
Frame Time: 0.002
-0.0047856512069702145	-0.0015046919584274293	0		0.6397138061523437	-2.545033203125	0		-0.9841524658203125	0.049580501556396483	0		-0.5302005004882813	-2.6002197265625	0		2.143179443359375	-1.4105306396484374	0		3.503427734375	-0.7770208129882813	0		4.6594228515625	-0.01549777889251709	0		5.96279150390625	0.5855836181640625	0		-0.33520864868164063	5.88385400390625	0		
-0.0045925707817077634	-0.0016486719846725464	0		0.6499375	-2.55427880859375	0		-1.0538837890625	0.05537617111206055	0		-0.5569695434570312	-2.60900927734375	0		2.10955078125	-1.4040531005859376	0		3.50085595703125	-0.7639019165039063	0		4.65283203125	-2.930240035057068E-4	0		5.9681630859375	0.6273341064453125	0		-0.36946923828125	5.87817626953125	0		
-3.4549298882484436E-4	0.001130458950996399	0		0.652320556640625	-2.5524326171875	0		-1.04964013671875	0.05809361267089844	0		-0.543712646484375	-2.616389892578125	0		2.104094970703125	-1.3860086669921876	0		3.50501953125	-0.769915771484375	0		4.63703857421875	4.162000026553869E-6	0		5.97334814453125	0.636140869140625	0		-0.3534692687988281	5.88776220703125	0		
0.005966754913330078	0.007864511966705323	0		0.6557437744140625	-2.5476201171875	0		-1.0413170166015624	0.06574202728271485	0		-0.5433566284179687	-2.616599609375	0		2.109852294921875	-1.3531484375	0		3.510814208984375	-0.731979736328125	0		4.6355078125	0.018065118789672853	0		5.96257177734375	0.7198223876953125	0		-0.18720970153808594	5.912203125	0		
-0.003954401016235351	-0.0021870388984680175	0		0.6489647216796876	-2.556681640625	0		-0.98707763671875	0.06673110198974609	0		-0.5161639404296875	-2.6282021484375	0		2.07318603515625	-1.349713623046875	0		3.4859033203125	-0.7436429443359375	0		4.6297841796875	0.022152801513671876	0		5.951732421875	0.6702108154296875	0		-0.3498648071289063	5.8722958984375	0		
3.1068599224090576E-4	5.491390228271484E-4	0		0.6223074340820313	-2.55647802734375	0		-1.0527381591796876	0.07540911102294921	0		-0.52090478515625	-2.634361572265625	0		2.092694580078125	-1.33409521484375	0		3.483343994140625	-0.7306493530273438	0		4.62490771484375	0.015196865081787109	0		5.9482314453125	0.6548812866210938	0		-0.21759909057617188	5.893208984375	0		
-0.003507577896118164	-0.002612339973449707	0		0.6455626831054687	-2.56199365234375	0		-1.0525177001953125	0.07514812469482422	0		-0.5266575317382812	-2.640515869140625	0		2.07015771484375	-1.32090576171875	0		3.476499755859375	-0.7376261596679687	0		4.60737109375	0.032390407562255856	0		5.9536103515625	0.6945430908203125	0		-0.399118408203125	5.85853076171875	0		
7.55719006061554E-4	1.0355299711227416E-4	0		0.5969916381835938	-2.553511962890625	0		-1.0482431640625	0.078826904296875	0		-0.5405799560546874	-2.65756396484375	0		2.0668330078125	-1.2920069580078124	0		3.451226806640625	-0.7033696899414063	0		4.596705078125	0.04045421600341797	0		5.9537646484375	0.694515869140625	0		-0.38496469116210935	5.868091796875	0		
9.729809761047363E-4	-1.317099928855896E-4	0		0.6502372436523437	-2.55747119140625	0		-1.0480281982421875	0.07856063079833984	0		-0.557240478515625	-2.65457763671875	0		2.031385986328125	-1.2706793212890626	0		3.444213623046875	-0.7214031982421875	0		4.6027802734375	0.03025110626220703	0		5.94193310546875	0.719045166015625	0		-0.35084024047851564	5.87336865234375	0		
-0.008675270080566407	0.009765908241271973	0		0.5955293579101563	-2.55592822265625	0		-1.047819091796875	0.07829414367675781	0		-0.5301216430664063	-2.66620849609375	0		2.0160484619140626	-1.2406507568359375	0		3.435736328125	-0.7004375	0		4.5801328125	0.040424640655517576	0		5.9384248046875	0.7034305419921875	0		-0.2174906005859375	5.89225830078125	0		
0.0013872450590133667	-6.186299920082092E-4	0		0.645665283203125	-2.564859375	0		-1.0594766845703125	0.0881946792602539	0		-0.5369780883789063	-2.674365966796875	0		2.0085833740234373	-1.218748291015625	0		3.413871337890625	-0.7063095703125	0		4.5712109375	0.0313799934387207	0		5.934912109375	0.6877567749023438	0		-0.35166680908203124	5.87388037109375	0		
-0.0024596049785614014	-0.0038125119209289553	0		0.6199420166015625	-2.56173779296875	0		-1.0533536376953125	0.08284593200683593	0		-0.5397994995117188	-2.67858154296875	0		2.0062144775390625	-1.1889296875	0		3.383274658203125	-0.6920783081054688	0		4.5732373046875	0.019160436630249023	0		5.92078662109375	0.687959228515625	0		-0.3866112670898437	5.87011376953125	0		
0.0017674219608306884	-0.001122509002685547	0		0.6570125122070313	-2.572499267578125	0		-1.0340872802734375	0.08831529235839844	0		-0.5656937866210937	-2.686478515625	0		1.97275048828125	-1.1646905517578126	0		3.393271728515625	-0.7064335327148438	0		4.545537109375	0.027337778091430665	0		5.9287333984375	0.6821771850585937	0		-0.38354541015625	5.86581396484375	0		
0.004999176979064941	0.002577821969985962	0		0.6612787475585937	-2.567807861328125	0		-1.0417159423828124	0.10215948486328125	0		-0.4996414794921875	-2.697658447265625	0		1.9595919189453126	-1.117741943359375	0		3.379095703125	-0.66045947265625	0		4.55668408203125	0.024958152770996094	0		5.92885791015625	0.6818145141601563	0		-0.21605642700195313	5.89022607421875	0		
-0.007749442100524902	0.00849756622314453	0		0.6464912109375	-2.56585546875	0		-1.0415499267578125	0.10189217376708984	0		-0.5523966674804688	-2.69318505859375	0		1.946170654296875	-1.0887978515625	0		3.355934814453125	-0.6843759155273438	0		4.5187568359375	0.018251832962036134	0		5.91105810546875	0.6664635009765625	0		-0.21887174987792968	5.89400537109375	0		
-0.001774446964263916	-0.004848433017730713	0		0.6446344604492188	-2.568087646484375	0		-1.04139404296875	0.10162255859375	0		-0.49142572021484376	-2.708299072265625	0		1.925849853515625	-1.05176220703125	0		3.318418701171875	-0.661094482421875	0		4.4968876953125	0.016315757751464845	0		5.90820654296875	0.6471331176757813	0		-0.2319141082763672	5.88192236328125	0		
-0.0016281499862670899	-0.005115979194641114	0		0.6526253662109375	-2.580462158203125	0		-1.041248291015625	0.10135005950927735	0		-0.555413330078125	-2.718677978515625	0		1.870590576171875	-1.0092459716796875	0		3.3194150390625	-0.6723590087890625	0		4.4699111328125	0.007442614078521728	0		5.89770263671875	0.6626485595703125	0		-0.3519233093261719	5.8733232421875	0		
-0.007309916019439697	0.007694296836853028	0		0.6558401489257812	-2.575774169921875	0		-1.0370703125	0.10401880645751953	0		-0.5243676147460937	-2.726382080078125	0		1.857052001953125	-0.9863191528320312	0		3.275989501953125	-0.6410111083984374	0		4.4599931640625	0.003322772026062012	0		5.89186572265625	0.6226188354492187	0		-0.3858722839355469	5.8685234375	0		
0.0026792850494384767	-0.002720289945602417	0		0.595173583984375	-2.561203125	0		-1.0396907958984376	0.12178069305419922	0		-0.5612169189453124	-2.72514501953125	0		1.8489619140625	-0.9304732666015625	0		3.27092529296875	-0.6552119750976563	0		4.430236328125	0.011467985153198242	0		5.8884912109375	0.6395740356445313	0		-0.35069952392578124	5.87175927734375	0		
0.002802949905395508	-0.0030019519329071045	0		0.643152587890625	-2.5721513671875	0		-1.05271875	0.11068121337890625	0		-0.5332499389648437	-2.736814697265625	0		1.802645751953125	-0.890106201171875	0		3.24735693359375	-0.6331634521484375	0		4.438984375	-0.015937631607055663	0		5.8885791015625	0.639082763671875	0		-0.3515595397949219	5.87249169921875	0		
-0.006936526775360107	0.006848804950714112	0		0.6162849731445312	-2.571064453125	0		-1.0525980224609375	0.11039582061767578	0		-0.540244873046875	-2.7450029296875	0		1.808334228515625	-0.84947021484375	0		3.2273115234375	-0.6451774291992187	0		4.4041220703125	-0.014745214462280273	0		5.8961240234375	0.5708391723632813	0		-0.2181353759765625	5.892353515625	0		
-9.979140162467957E-4	-0.00652678108215332	0		0.6492001953125	-2.585817138671875	0		-1.052477783203125	0.11010521697998046	0		-0.5333137817382813	-2.75839111328125	0		1.7481112060546875	-0.8019248657226562	0		3.17657373046875	-0.6347713012695313	0		4.376119140625	-0.023658382415771485	0		5.89026611328125	0.52898046875	0		-0.38535891723632815	5.8673857421875	0		
0.0031657080650329588	-0.0038827219009399416	0		0.610304443359375	-2.58657666015625	0		-1.1283338623046875	0.11186531066894531	0		-0.5691685791015625	-2.75618896484375	0		1.7558006591796875	-0.76133154296875	0		3.15858447265625	-0.6428299560546875	0		4.36518701171875	-0.02781624984741211	0		5.88270703125	0.56329150390625	0		-0.335042724609375	5.87939013671875	0		
0.009390274047851562	0.002726495981216431	0		0.655531982421875	-2.57951171875	0		-1.0450052490234376	0.12540576934814454	0		-0.5710761108398438	-2.758466064453125	0		1.7126956787109375	-0.7060363159179688	0		3.15307275390625	-0.6170643920898438	0		4.3721748046875	-0.03822945785522461	0		5.8991416015625	0.5518002319335937	0		-0.3197470703125	5.88987451171875	0		
0.0034290719032287597	-0.004502059936523438	0		0.6246106567382812	-2.583393798828125	0		-1.0639510498046876	0.11935973358154296	0		-0.5111734619140625	-2.77561083984375	0		1.7222744140625	-0.6744801635742188	0		3.0910185546875	-0.6305183715820313	0		4.35524267578125	-0.043311256408691406	0		5.88913525390625	0.5308211669921875	0		-0.20343205261230468	5.900947265625	0		
0.0035734949111938478	-0.004819818019866943	0		0.646656005859375	-2.591016845703125	0		-1.0797215576171875	0.12526380920410157	0		-0.5500665283203126	-2.778385986328125	0		1.6809794921875	-0.6342171630859375	0		3.0824560546875	-0.6097124633789063	0		4.3502900390625	-0.05055815887451172	0		5.894111328125	0.5093467102050782	0		-0.3365818176269531	5.88048193359375	0		
-0.006133265972137451	0.00499702787399292	0		0.6307196044921874	-2.59811328125	0		-1.067708984375	0.11477396392822266	0		-0.4870797119140625	-2.791583740234375	0		1.683593017578125	-0.6015654296875	0		3.047558349609375	-0.6135390625	0		4.26833984375	-0.057729278564453125	0		5.89909423828125	0.48788912963867187	0		-0.33644284057617185	5.88016015625	0		
